<?xml version="1.0" encoding="UTF-8" standalone="no"?>
<!DOCTYPE svg PUBLIC "-//W3C//DTD SVG 1.1//EN" "http://www.w3.org/Graphics/SVG/1.1/DTD/svg11.dtd">
<svg width="100%" height="100%" viewBox="0 0 24 24" version="1.1" xmlns="http://www.w3.org/2000/svg" xmlns:xlink="http://www.w3.org/1999/xlink" xml:space="preserve" xmlns:serif="http://www.serif.com/" style="fill-rule:evenodd;clip-rule:evenodd;stroke-linecap:round;stroke-linejoin:round;stroke-miterlimit:2;">
    <g id="Accepted" transform="matrix(1,0,0,4.46618,-4927.65,-4247.15)">
        <g transform="matrix(0.509539,-0.114088,0.509539,0.114088,-447.152,2032.37)">
            <path d="M10021.8,559.811L10008.2,559.811L10008.2,554.088" style="fill:none;stroke:rgb(219,80,74);stroke-width:2.78px;"/>
        </g>
        <g transform="matrix(1,0,0,0.223905,-6774.34,823.149)">
            <path d="M11714,570.819C11720.6,570.819 11726,576.196 11726,582.819C11726,589.441 11720.6,594.819 11714,594.819C11707.4,594.819 11702,589.441 11702,582.819C11702,576.196 11707.4,570.819 11714,570.819ZM11714,572.819C11719.5,572.819 11724,577.299 11724,582.819C11724,588.338 11719.5,592.819 11714,592.819C11708.5,592.819 11704,588.338 11704,582.819C11704,577.299 11708.5,572.819 11714,572.819Z" style="fill:rgb(219,80,74);"/>
        </g>
    </g>
</svg>
