<svg xmlns="http://www.w3.org/2000/svg" viewBox="0 0 24 24"  fill-rule="evenodd" stroke-linecap="round" stroke-linejoin="round" stroke-miterlimit="2" xmlns:v="https://vecta.io/nano"><path d="M10021.8 559.811h-13.6v-5.723" fill="none" stroke="#db504a" stroke-width="2.78" transform="matrix(.509539 -.509538 .509539 .509538 -5374.802 4829.780247)"/><path d="M12.01.001c6.6 0 12 5.377 12 12s-5.4 12-12 12-12-5.378-12-12 5.4-12 12-12zm0 2a10.02 10.02 0 0 1 10 10 10.02 10.02 0 0 1-10 10 10.02 10.02 0 0 1-10-10 10.02 10.02 0 0 1 10-10z" fill="#db504a"/></svg>