<svg xmlns="http://www.w3.org/2000/svg" viewBox="0 0 20 24"  fill-rule="evenodd" stroke-linejoin="round" stroke-miterlimit="2" fill="#db504a" xmlns:v="https://vecta.io/nano"><path d="M16.366 8.728s-.385 5.193 2.981 9.853a.72.72 0 0 1 .053.787c-.14.251-.413.408-.715.408l-8.048.004-9.831-.003c-.299 0-.575-.157-.712-.408s-.12-.554.05-.786c3.369-4.66 2.978-9.813 2.984-9.814 0-3.464 2.965-6.276 6.619-6.276 3.637 0 6.593 2.79 6.619 6.235zm-2.001-.03c-.042-2.357-2.122-4.206-4.617-4.206-2.51 0-4.6 1.87-4.62 4.246l.006.112a14.29 14.29 0 0 1-.006.965v.528l-.028.007c-.12 1.714-.567 4.535-2.105 7.428l13.505-.001c-2.247-4.23-2.172-8.339-2.135-9.078z"/><path d="M13.135 19.462c.01.105.01.211.01.318 0 1.879-1.52 3.405-3.4 3.405a3.41 3.41 0 0 1-3.41-3.405 3.35 3.35 0 0 1 .02-.318h2.02c-.02.102-.03.209-.03.318 0 .774.62 1.403 1.4 1.403.77 0 1.4-.629 1.4-1.403 0-.109-.01-.216-.03-.318h2.02zM7.542 3.167c-.03-.142-.04-.289-.04-.439v-.484A2.24 2.24 0 0 1 9.742 0a2.25 2.25 0 0 1 2.25 2.244v.484c0 .15-.02.297-.05.439h-4.4zm2.45-.921c0-.137-.11-.248-.25-.248s-.25.111-.25.248v.48c0 .137.11.248.25.248s.25-.111.25-.248v-.48z"/></svg>