<?xml version="1.0" encoding="UTF-8" standalone="no"?>
<!DOCTYPE svg PUBLIC "-//W3C//DTD SVG 1.1//EN" "http://www.w3.org/Graphics/SVG/1.1/DTD/svg11.dtd">
<svg width="100%" height="100%" viewBox="0 0 20 24" version="1.1" xmlns="http://www.w3.org/2000/svg" xmlns:xlink="http://www.w3.org/1999/xlink" xml:space="preserve" xmlns:serif="http://www.serif.com/" style="fill-rule:evenodd;clip-rule:evenodd;stroke-linejoin:round;stroke-miterlimit:2;">
    <g transform="matrix(1,0,0,1,-3416.31,218.253)">
        <g transform="matrix(0.279145,0,0,0.263723,3123.66,-304.071)">
            <path d="M1107.01,358.505C1107.01,358.505 1105.63,378.196 1117.69,395.867C1118.31,396.749 1118.38,397.898 1117.88,398.85C1117.38,399.801 1116.4,400.397 1115.32,400.397C1108.98,400.402 1098.18,400.406 1086.49,400.408L1086.49,400.413C1072.45,400.411 1058.76,400.407 1051.27,400.401C1050.2,400.401 1049.21,399.805 1048.72,398.853C1048.22,397.902 1048.29,396.753 1048.9,395.871C1060.97,378.2 1059.57,358.663 1059.59,358.659C1059.59,345.524 1070.21,334.861 1083.3,334.861C1096.33,334.861 1106.92,345.441 1107.01,358.505ZM1099.84,358.392C1099.69,349.454 1092.24,342.444 1083.3,342.444C1074.31,342.444 1066.82,349.534 1066.75,358.543L1066.77,358.969C1066.79,359.671 1066.81,360.928 1066.75,362.627L1066.75,364.628L1066.65,364.655C1066.22,371.156 1064.62,381.851 1059.11,392.82L1079.33,392.826L1086.49,392.824L1107.49,392.816C1099.44,376.776 1099.71,361.196 1099.84,358.392Z" style="fill:rgb(219,80,74);"/>
        </g>
        <g transform="matrix(1,0,0,1,24.6046,-12.2918)">
            <path d="M3404.84,-186.499C3404.85,-186.394 3404.85,-186.288 3404.85,-186.181C3404.85,-184.302 3403.33,-182.776 3401.45,-182.776C3399.57,-182.776 3398.04,-184.302 3398.04,-186.181C3398.04,-186.288 3398.05,-186.394 3398.06,-186.499L3400.08,-186.499C3400.06,-186.397 3400.05,-186.29 3400.05,-186.181C3400.05,-185.407 3400.67,-184.778 3401.45,-184.778C3402.22,-184.778 3402.85,-185.407 3402.85,-186.181C3402.85,-186.29 3402.84,-186.397 3402.82,-186.499L3404.84,-186.499Z" style="fill:rgb(219,80,74);"/>
        </g>
        <g transform="matrix(1,0,0,1,-19.7878,-10.3207)">
            <path d="M3443.64,-204.765C3443.61,-204.907 3443.6,-205.054 3443.6,-205.204L3443.6,-205.688C3443.6,-206.926 3444.6,-207.932 3445.84,-207.932C3447.08,-207.932 3448.09,-206.926 3448.09,-205.688L3448.09,-205.204C3448.09,-205.054 3448.07,-204.907 3448.04,-204.765L3443.64,-204.765ZM3446.09,-205.686C3446.09,-205.823 3445.98,-205.934 3445.84,-205.934C3445.7,-205.934 3445.59,-205.823 3445.59,-205.686L3445.59,-205.206C3445.59,-205.069 3445.7,-204.958 3445.84,-204.958C3445.98,-204.958 3446.09,-205.069 3446.09,-205.206L3446.09,-205.686Z" style="fill:rgb(219,80,74);"/>
        </g>
    </g>
</svg>
