<svg xmlns="http://www.w3.org/2000/svg" viewBox="0 0 24 24"  fill-rule="evenodd" stroke-linejoin="round" stroke-miterlimit="2" fill="#db504a" xmlns:v="https://vecta.io/nano"><path d="M12-.001a12 12 0 0 1 11.99 11.994A12 12 0 0 1 12 23.987c-6.62 0-12-5.374-12-11.994A12.01 12.01 0 0 1 12-.001zm0 2c5.51 0 9.99 4.479 9.99 9.994A10 10 0 0 1 12 21.987c-5.52 0-10-4.478-10-9.994s4.48-9.994 10-9.994zm.996 3.822c0-.277-.23-.492-.5-.492h-1c-.27 0-.5.215-.5.492v8.17a.51.51 0 0 0 .5.508h1a.51.51 0 0 0 .5-.508v-8.17z"/><circle cx="8272.44" cy="3548.23" r=".774" transform="matrix(1.55092 0 0 1.55092 -12817.865 -5485.526)"/></svg>