<?xml version="1.0" encoding="UTF-8" standalone="no"?>
<!DOCTYPE svg PUBLIC "-//W3C//DTD SVG 1.1//EN" "http://www.w3.org/Graphics/SVG/1.1/DTD/svg11.dtd">
<svg width="100%" height="100%" viewBox="0 0 24 24" version="1.1" xmlns="http://www.w3.org/2000/svg" xmlns:xlink="http://www.w3.org/1999/xlink" xml:space="preserve" xmlns:serif="http://www.serif.com/" style="fill-rule:evenodd;clip-rule:evenodd;stroke-linejoin:round;stroke-miterlimit:2;">
    <g id="Error" transform="matrix(1,0,0,1,-8535.11,-3419.16)">
        <g transform="matrix(1,0,0,1,3260.04,2643.68)">
            <path d="M5287.07,775.479C5293.69,775.479 5299.06,780.854 5299.06,787.473C5299.06,794.093 5293.69,799.467 5287.07,799.467C5280.45,799.467 5275.07,794.093 5275.07,787.473C5275.07,780.854 5280.45,775.479 5287.07,775.479ZM5287.07,777.479C5292.58,777.479 5297.06,781.958 5297.06,787.473C5297.06,792.989 5292.58,797.467 5287.07,797.467C5281.55,797.467 5277.07,792.989 5277.07,787.473C5277.07,781.958 5281.55,777.479 5287.07,777.479Z" style="fill:rgb(219,80,74);"/>
        </g>
        <g transform="matrix(1,0,0,1,0.87484,-0.156341)">
            <g transform="matrix(1,0,0,1.53869,277.431,-2018.04)">
                <path d="M8269.8,3537.54C8269.8,3537.36 8269.57,3537.22 8269.3,3537.22L8268.3,3537.22C8268.03,3537.22 8267.8,3537.36 8267.8,3537.54L8267.8,3542.85C8267.8,3543.03 8268.03,3543.18 8268.3,3543.18L8269.3,3543.18C8269.57,3543.18 8269.8,3543.03 8269.8,3542.85L8269.8,3537.54Z" style="fill:rgb(219,80,74);"/>
            </g>
            <g transform="matrix(1.55092,0,0,1.55092,-4283.63,-2066.21)">
                <circle cx="8272.44" cy="3548.23" r="0.774" style="fill:rgb(219,80,74);"/>
            </g>
        </g>
    </g>
</svg>
