<svg xmlns="http://www.w3.org/2000/svg" viewBox="0 0 24 24"  fill-rule="evenodd" stroke-linejoin="round" stroke-miterlimit="2" xmlns:v="https://vecta.io/nano"><path d="M23.52 12.267c0-.987-.08-1.707-.253-2.453H12v4.453h6.613c-.133 1.107-.853 2.773-2.453 3.893l-.022.149 3.562 2.76.247.025C22.213 19 23.52 15.92 23.52 12.267" fill="#4285f4"/><path d="M12 24c3.24 0 5.96-1.067 7.947-2.907L16.16 18.16c-1.013.707-2.373 1.2-4.16 1.2-3.173 0-5.867-2.093-6.827-4.987l-.141.012-3.704 2.867-.048.135C3.253 21.306 7.307 24 12 24" fill="#34a853"/><path d="M5.173 14.373c-.253-.747-.4-1.547-.4-2.373s.147-1.627.387-2.373l-.007-.159-3.751-2.913-.123.058A12.01 12.01 0 0 0 0 12a12.01 12.01 0 0 0 1.28 5.386l3.893-3.013" fill="#fbbc05"/><path d="M12 4.64c2.253 0 3.773.973 4.64 1.787l3.387-3.307C17.947 1.187 15.24 0 12 0 7.307 0 3.253 2.693 1.28 6.613l3.88 3.013C6.133 6.733 8.827 4.64 12 4.64" fill="#eb4335"/></svg>