<?xml version="1.0" encoding="UTF-8" standalone="no"?>
<!DOCTYPE svg PUBLIC "-//W3C//DTD SVG 1.1//EN" "http://www.w3.org/Graphics/SVG/1.1/DTD/svg11.dtd">
<svg width="100%" height="100%" viewBox="0 0 24 24" version="1.1" xmlns="http://www.w3.org/2000/svg" xmlns:xlink="http://www.w3.org/1999/xlink" xml:space="preserve" xmlns:serif="http://www.serif.com/" style="fill-rule:evenodd;clip-rule:evenodd;stroke-linejoin:round;stroke-miterlimit:2;">
    <g transform="matrix(1,0,0,1.64698,-1201.9,-640.691)">
        <g transform="matrix(1,0,0,0.607171,-4073.17,-81.8398)">
            <path d="M5287.07,775.479C5293.69,775.479 5299.06,780.854 5299.06,787.473C5299.06,794.093 5293.69,799.467 5287.07,799.467C5280.45,799.467 5275.07,794.093 5275.07,787.473C5275.07,780.854 5280.45,775.479 5287.07,775.479ZM5287.07,777.479C5292.58,777.479 5297.06,781.958 5297.06,787.473C5297.06,792.989 5292.58,797.467 5287.07,797.467C5281.55,797.467 5277.07,792.989 5277.07,787.473C5277.07,781.958 5281.55,777.479 5287.07,777.479Z" style="fill:rgb(149,147,163);"/>
        </g>
        <g transform="matrix(20,0,0,12.1434,1209.67,400.875)">
            <path d="M0.15,-0.177C0.149,-0.18 0.149,-0.184 0.149,-0.188L0.149,-0.199C0.149,-0.227 0.153,-0.252 0.162,-0.273C0.17,-0.294 0.18,-0.314 0.193,-0.332C0.205,-0.349 0.218,-0.366 0.233,-0.381C0.247,-0.396 0.26,-0.412 0.273,-0.428C0.285,-0.443 0.295,-0.46 0.304,-0.477C0.312,-0.495 0.316,-0.515 0.316,-0.538C0.316,-0.569 0.307,-0.594 0.29,-0.613C0.272,-0.632 0.242,-0.642 0.201,-0.642C0.177,-0.642 0.153,-0.638 0.128,-0.629C0.103,-0.621 0.082,-0.611 0.064,-0.6L0.037,-0.662C0.062,-0.677 0.089,-0.69 0.117,-0.699C0.145,-0.708 0.18,-0.712 0.221,-0.712C0.25,-0.712 0.276,-0.708 0.299,-0.7C0.321,-0.691 0.34,-0.68 0.355,-0.665C0.37,-0.65 0.381,-0.633 0.388,-0.613C0.395,-0.593 0.399,-0.572 0.399,-0.549C0.399,-0.519 0.395,-0.493 0.386,-0.47C0.377,-0.448 0.365,-0.428 0.352,-0.409C0.338,-0.391 0.323,-0.374 0.308,-0.358C0.292,-0.342 0.277,-0.325 0.264,-0.308C0.25,-0.29 0.238,-0.271 0.23,-0.25C0.221,-0.229 0.216,-0.205 0.216,-0.177L0.15,-0.177ZM0.13,-0.046C0.13,-0.064 0.135,-0.078 0.146,-0.089C0.156,-0.099 0.17,-0.104 0.187,-0.104C0.205,-0.104 0.219,-0.099 0.23,-0.089C0.241,-0.078 0.246,-0.064 0.246,-0.046C0.246,-0.029 0.241,-0.015 0.23,-0.004C0.219,0.007 0.205,0.012 0.187,0.012C0.17,0.012 0.156,0.007 0.146,-0.004C0.135,-0.015 0.13,-0.029 0.13,-0.046Z" style="fill:rgb(149,147,163);fill-rule:nonzero;"/>
        </g>
    </g>
</svg>
