<svg xmlns="http://www.w3.org/2000/svg" viewBox="0 0 24 24"  fill-rule="evenodd" stroke-linejoin="round" stroke-miterlimit="2" fill="#9593a3" xmlns:v="https://vecta.io/nano"><path d="M12-.002a12 12 0 0 1 11.99 11.994A12 12 0 0 1 12 23.986c-6.62 0-12-5.374-12-11.994A12.01 12.01 0 0 1 12-.002zm0 2c5.51 0 9.99 4.479 9.99 9.994A10 10 0 0 1 12 21.986c-5.52 0-10-4.478-10-9.994s4.48-9.994 10-9.994z"/><path d="M10.77 16.002c-.02-.06-.02-.14-.02-.22v-.22c0-.56.08-1.06.26-1.48.16-.42.36-.82.62-1.18.24-.34.5-.68.8-.98l.8-.94c.24-.3.44-.64.62-.98.16-.36.24-.76.24-1.22 0-.62-.18-1.12-.52-1.5-.36-.38-.96-.58-1.78-.58a4.25 4.25 0 0 0-1.46.26 5.86 5.86 0 0 0-1.28.58l-.54-1.24a7.75 7.75 0 0 1 1.6-.74c.56-.18 1.26-.26 2.08-.26.58 0 1.1.08 1.56.24.44.18.82.4 1.12.7s.52.64.66 1.04a3.82 3.82 0 0 1 .22 1.28c0 .6-.08 1.12-.26 1.58a6.58 6.58 0 0 1-.68 1.22c-.28.36-.58.7-.88 1.02a10.16 10.16 0 0 0-.88 1c-.28.36-.52.74-.68 1.16-.18.42-.28.9-.28 1.46h-1.32zm-.4 2.62c0-.36.1-.64.32-.86.2-.2.48-.3.82-.3.36 0 .64.1.86.3.22.22.32.5.32.86 0 .34-.1.62-.32.84s-.5.32-.86.32c-.34 0-.62-.1-.82-.32-.22-.22-.32-.5-.32-.84z" fill-rule="nonzero"/></svg>