<?xml version="1.0" encoding="UTF-8" standalone="no"?>
<!DOCTYPE svg PUBLIC "-//W3C//DTD SVG 1.1//EN" "http://www.w3.org/Graphics/SVG/1.1/DTD/svg11.dtd">
<svg width="100%" height="100%" viewBox="0 0 17 22" version="1.1" xmlns="http://www.w3.org/2000/svg" xmlns:xlink="http://www.w3.org/1999/xlink" xml:space="preserve" xmlns:serif="http://www.serif.com/" style="fill-rule:evenodd;clip-rule:evenodd;stroke-linecap:round;stroke-linejoin:bevel;stroke-miterlimit:2;">
    <g transform="matrix(1.23207,5.55112e-17,-5.55112e-17,1.23207,-321.02,-572.507)">
        <g transform="matrix(0.407391,-0.235207,0.235207,0.407391,-63.327,376.078)">
            <path d="M507.021,512.281C514.451,512.281 520.484,518.313 520.484,525.744C520.484,533.174 514.451,539.206 507.021,539.206C499.591,539.206 493.559,533.174 493.559,525.744C493.559,518.313 499.591,512.281 507.021,512.281ZM507.021,515.732C512.547,515.732 517.033,520.218 517.033,525.744C517.033,531.269 512.547,535.755 507.021,535.755C501.496,535.755 497.01,531.269 497.01,525.744C497.01,520.218 501.496,515.732 507.021,515.732Z" style="fill:rgb(149,147,163);"/>
        </g>
        <g transform="matrix(0.866025,-0.5,0.5,0.866025,-240.049,129.628)">
            <path d="M268.331,554.901L268.331,561.218" style="fill:none;stroke:rgb(149,147,163);stroke-width:1.62px;"/>
        </g>
    </g>
</svg>
