<svg xmlns="http://www.w3.org/2000/svg" viewBox="0 0 17 22"  fill-rule="evenodd" stroke-linecap="round" stroke-linejoin="bevel" stroke-miterlimit="2" xmlns:v="https://vecta.io/nano"><g transform="matrix(1.23207 0 0 1.23207 -321.02 -572.507)"><path d="M263.721 465.522a6.34 6.34 0 0 1 8.651 2.318 6.34 6.34 0 0 1-2.318 8.651 6.34 6.34 0 0 1-8.651-2.318 6.34 6.34 0 0 1 2.318-8.651zm.812 1.406c2.251-1.3 5.134-.527 6.434 1.724s.527 5.134-1.724 6.433-5.134.527-6.433-1.724-.527-5.134 1.723-6.433z" fill="#9593a3"/><path d="M269.783 476.021l3.159 5.471" fill="none" stroke="#9593a3" stroke-width="1.62"/></g></svg>