<?xml version="1.0" encoding="UTF-8" standalone="no"?>
<!DOCTYPE svg PUBLIC "-//W3C//DTD SVG 1.1//EN" "http://www.w3.org/Graphics/SVG/1.1/DTD/svg11.dtd">
<svg width="100%" height="100%" viewBox="0 0 16 22" version="1.1" xmlns="http://www.w3.org/2000/svg" xmlns:xlink="http://www.w3.org/1999/xlink" xml:space="preserve" xmlns:serif="http://www.serif.com/" style="fill-rule:evenodd;clip-rule:evenodd;stroke-linecap:round;stroke-linejoin:bevel;stroke-miterlimit:2;">
    <g id="Trash" transform="matrix(0.76551,0,0,2.35193,-3289.33,-2218.01)">
        <g transform="matrix(-0.074298,2.96152e-18,-8.73945e-18,-0.0232274,5126.16,937.559)">
            <path d="M11146.9,-390.123C11147.5,-384.793 11145.9,-379.433 11142.5,-375.407C11139.1,-371.38 11134.2,-369.074 11129,-369.074C11081.1,-369.074 10961.8,-369.074 10915,-369.074C10910.1,-369.074 10905.5,-371.26 10902.2,-375.077C10899,-378.893 10897.5,-383.973 10898.1,-389.026C10905.5,-450.606 10927.4,-633.551 10927.4,-633.551L11117.7,-633.551C11117.7,-633.551 11139.4,-452.748 11146.9,-390.123ZM11086.7,-596.941L10958.4,-596.941L10935.5,-405.685L11109.6,-405.685L11086.7,-596.941Z" style="fill:rgb(219,80,74);"/>
        </g>
        <g transform="matrix(1.24644,0,0,0.464136,-8428.01,704.483)">
            <path d="M10221.9,519.491L10212.6,519.491C10212.6,519.491 10213.3,516.245 10213.7,514.754C10213.7,514.329 10214.2,514.022 10214.7,514.022C10216,514.022 10218.4,514.022 10219.8,514.022C10220.3,514.022 10220.7,514.343 10220.8,514.788C10221.2,516.294 10221.9,519.491 10221.9,519.491ZM10215.1,517.659L10219.3,517.659L10218.9,515.854L10215.5,515.854L10215.1,517.659Z" style="fill:rgb(219,80,74);"/>
        </g>
        <g transform="matrix(0.968576,0,0,0.325482,-5527.43,776.774)">
            <path d="M10144.4,517.384L10163,517.384" style="fill:none;stroke:rgb(219,80,74);stroke-width:2.65px;"/>
        </g>
    </g>
</svg>
