<svg xmlns="http://www.w3.org/2000/svg" viewBox="0 0 16 22"  fill-rule="evenodd" stroke-linecap="round" stroke-linejoin="bevel" stroke-miterlimit="2" xmlns:v="https://vecta.io/nano"><path d="M.807 8.375a1.04 1.04 0 0 1 .25-.804 1.02 1.02 0 0 1 .768-.346h12.171c.279 0 .54.119.728.328.182.208.267.486.233.762l-1.666 13.358H2.468L.807 8.375zm3.424 11.298h7.297L12.83 9.225H2.929l1.302 10.448zm8.065-13.704H3.422L4.471.798c0-.464.477-.799.954-.799h4.866c.477 0 .859.35.954.836l1.05 5.134zm-6.488-2h4.007l-.382-1.97H6.189l-.382 1.97z" fill="#db504a"/><path d="M.979 4.971H14.77" fill="none" stroke="#db504a" stroke-width="1.997"/></svg>